<svg xmlns="http://www.w3.org/2000/svg" viewBox="0 0 100 100" width="100" height="100">
  <!-- Cake Base -->
  <rect x="20" y="60" width="60" height="30" rx="5" ry="5" fill="#FFC107" stroke="#FF6F00" stroke-width="2"/>
  <rect x="20" y="45" width="60" height="15" rx="2" ry="2" fill="#FFECB3" stroke="#FF6F00" stroke-width="2"/>
  
  <!-- Icing Drips -->
  <path d="M20,60 Q30,70 40,60 T60,60 T80,60 T90,50" fill="none" stroke="#FF6F00" stroke-width="2" opacity="0.5" />

  <!-- Candles -->
  <rect x="30" y="25" width="6" height="20" fill="#2196F3" stroke="#0D47A1" stroke-width="1"/>
  <rect x="47" y="25" width="6" height="20" fill="#4CAF50" stroke="#1B5E20" stroke-width="1"/>
  <rect x="64" y="25" width="6" height="20" fill="#F44336" stroke="#B71C1C" stroke-width="1"/>

  <!-- Flames -->
  <path d="M33,25 Q30,15 33,5 Q36,15 33,25 Z" fill="#FFAB00" />
  <path d="M50,25 Q47,15 50,5 Q53,15 50,25 Z" fill="#FFAB00" />
  <path d="M67,25 Q64,15 67,5 Q70,15 67,25 Z" fill="#FFAB00" />
</svg>
